<mxfile host="app.diagrams.net" modified="2024-07-18T08:26:15.816Z" agent="Mozilla/5.0 (Windows NT 10.0; Win64; x64) AppleWebKit/537.36 (KHTML, like Gecko) Chrome/122.0.0.0 Safari/537.36" version="24.2.2" etag="D6DwRfP4Na3pHyeQk4IJ" type="github">
  <diagram name="Page-1" id="s244xCOoePfYOB9TYWsI">
    <mxGraphModel>
      <root>
        <mxCell id="0" />
        <mxCell id="1" parent="0" />
      </root>
    </mxGraphModel>
  </diagram>
</mxfile>
